<svg width="24" height="24" viewBox="0 0 24 24" fill="none" xmlns="http://www.w3.org/2000/svg">
<path fill-rule="evenodd" clip-rule="evenodd" d="M4.28571 15.4286C4.62671 15.4286 4.95373 15.564 5.19485 15.8052C5.43597 16.0463 5.57143 16.3733 5.57143 16.7143C5.57143 17.0553 5.43597 17.3823 5.19485 17.6234C4.95373 17.8645 4.62671 18 4.28571 18C3.94472 18 3.6177 17.8645 3.37658 17.6234C3.13546 17.3823 3 17.0553 3 16.7143C3 16.3733 3.13546 16.0463 3.37658 15.8052C3.6177 15.564 3.94472 15.4286 4.28571 15.4286ZM19.7134 15.8571C20.1874 15.8571 20.5714 16.2377 20.5714 16.7143C20.5714 17.1879 20.19 17.5714 19.7134 17.5714H7.71514C7.60245 17.5718 7.49079 17.5498 7.3866 17.5069C7.2824 17.4639 7.18772 17.4008 7.10799 17.3212C7.02826 17.2415 6.96506 17.1469 6.92201 17.0428C6.87896 16.9386 6.85692 16.827 6.85714 16.7143C6.85714 16.2407 7.23857 15.8571 7.71514 15.8571H19.7134ZM4.28571 11.1429C4.62671 11.1429 4.95373 11.2783 5.19485 11.5194C5.43597 11.7606 5.57143 12.0876 5.57143 12.4286C5.57143 12.7696 5.43597 13.0966 5.19485 13.3377C4.95373 13.5788 4.62671 13.7143 4.28571 13.7143C3.94472 13.7143 3.6177 13.5788 3.37658 13.3377C3.13546 13.0966 3 12.7696 3 12.4286C3 12.0876 3.13546 11.7606 3.37658 11.5194C3.6177 11.2783 3.94472 11.1429 4.28571 11.1429ZM19.7134 11.5714C20.1874 11.5714 20.5714 11.952 20.5714 12.4286C20.5714 12.9021 20.19 13.2857 19.7134 13.2857H7.71514C7.60245 13.2861 7.49079 13.2641 7.3866 13.2212C7.2824 13.1782 7.18772 13.1151 7.10799 13.0355C7.02826 12.9558 6.96506 12.8612 6.92201 12.7571C6.87896 12.6529 6.85692 12.5413 6.85714 12.4286C6.85714 11.955 7.23857 11.5714 7.71514 11.5714H19.7134ZM4.28571 6.85714C4.62671 6.85714 4.95373 6.9926 5.19485 7.23372C5.43597 7.47484 5.57143 7.80187 5.57143 8.14286C5.57143 8.48385 5.43597 8.81088 5.19485 9.052C4.95373 9.29311 4.62671 9.42857 4.28571 9.42857C3.94472 9.42857 3.6177 9.29311 3.37658 9.052C3.13546 8.81088 3 8.48385 3 8.14286C3 7.80187 3.13546 7.47484 3.37658 7.23372C3.6177 6.9926 3.94472 6.85714 4.28571 6.85714ZM19.7134 7.28571C20.1874 7.28571 20.5714 7.66629 20.5714 8.14286C20.5714 8.61643 20.19 9 19.7134 9H7.71514C7.60245 9.00034 7.49079 8.97841 7.3866 8.93546C7.2824 8.89252 7.18772 8.82941 7.10799 8.74976C7.02826 8.67011 6.96506 8.57549 6.92201 8.47134C6.87896 8.36719 6.85692 8.25556 6.85714 8.14286C6.85714 7.66929 7.23857 7.28571 7.71514 7.28571H19.7134Z" fill="#C09028"/>
</svg>
