<svg width="146" height="17" viewBox="0 0 146 17" fill="none" xmlns="http://www.w3.org/2000/svg">
<path d="M7.848 16.288C6.376 16.288 5.104 15.984 4.032 15.376C2.96 14.768 2.136 13.896 1.56 12.76C0.984 11.624 0.696 10.28 0.696 8.728C0.696 7 1.04 5.504 1.728 4.24C2.416 2.976 3.4 2.008 4.68 1.336C5.96 0.647999 7.472 0.303999 9.216 0.303999C9.84 0.303999 10.504 0.351999 11.208 0.448C11.912 0.528 12.512 0.616 13.008 0.711999C13.504 0.807999 13.824 0.871999 13.968 0.904L14.136 1.216C14.104 1.312 14.048 1.56 13.968 1.96C13.888 2.344 13.8 2.864 13.704 3.52C13.624 4.16 13.56 4.848 13.512 5.584L11.208 5.752C11.224 5.688 11.24 5.536 11.256 5.296C11.272 5.056 11.28 4.768 11.28 4.432C11.28 3.76 11.072 3.288 10.656 3.016C10.256 2.728 9.584 2.584 8.64 2.584C7.184 2.584 6.096 3.024 5.376 3.904C4.656 4.768 4.296 6.104 4.296 7.912C4.296 9.88 4.656 11.408 5.376 12.496C6.112 13.568 7.128 14.104 8.424 14.104C8.856 14.104 9.248 14.056 9.6 13.96C9.952 13.864 10.224 13.768 10.416 13.672C10.624 13.56 10.752 13.488 10.8 13.456V11.176C10.8 10.712 10.728 10.408 10.584 10.264C10.44 10.104 10.152 10.024 9.72 10.024H8.472L8.352 9.832L8.592 8.128C8.976 8.128 9.304 8.136 9.576 8.152C10.472 8.184 11.256 8.2 11.928 8.2C12.424 8.2 12.912 8.184 13.392 8.152C13.872 8.12 14.184 8.096 14.328 8.08L14.496 8.992C14.224 9.168 14.016 9.392 13.872 9.664C13.744 9.92 13.656 10.296 13.608 10.792C13.56 11.272 13.536 11.984 13.536 12.928C13.536 13.888 13.592 14.584 13.704 15.016L13.488 15.304C13.488 15.32 13.216 15.416 12.672 15.592C12.144 15.768 11.456 15.928 10.608 16.072C9.776 16.216 8.856 16.288 7.848 16.288ZM22.1591 16.216C20.3671 16.216 18.9591 15.696 17.9351 14.656C16.9271 13.6 16.4231 12.144 16.4231 10.288C16.4231 8.96 16.6871 7.808 17.2151 6.832C17.7431 5.84 18.4951 5.08 19.4711 4.552C20.4631 4.024 21.6151 3.76 22.9271 3.76C24.7511 3.76 26.1671 4.28 27.1751 5.32C28.1831 6.344 28.6871 7.784 28.6871 9.64C28.6871 10.968 28.4151 12.128 27.8711 13.12C27.3431 14.112 26.5831 14.88 25.5911 15.424C24.6151 15.952 23.4711 16.216 22.1591 16.216ZM22.6391 14.416C23.5031 14.416 24.1671 14.096 24.6311 13.456C25.0951 12.816 25.3271 11.888 25.3271 10.672C25.3271 9.04 25.0711 7.816 24.5591 7C24.0631 6.184 23.3431 5.776 22.3991 5.776C21.5511 5.776 20.9031 6.088 20.4551 6.712C20.0071 7.336 19.7831 8.264 19.7831 9.496C19.7831 11.144 20.0231 12.376 20.5031 13.192C20.9991 14.008 21.7111 14.416 22.6391 14.416ZM30.5181 14.8C31.0141 14.72 31.3501 14.568 31.5261 14.344C31.7181 14.104 31.8141 13.712 31.8141 13.168V6.28C31.8141 5.896 31.7661 5.64 31.6701 5.512C31.5741 5.384 31.3901 5.32 31.1181 5.32H30.5421L30.3981 5.128L30.5661 3.952L33.3501 3.976C33.9421 3.976 34.5661 3.96 35.2221 3.928C35.8941 3.896 36.3581 3.872 36.6141 3.856L36.4461 5.32C35.9821 5.368 35.6461 5.432 35.4381 5.512C35.2301 5.592 35.0941 5.712 35.0301 5.872C34.9661 6.016 34.9181 6.248 34.8861 6.568C34.7421 8.504 34.6701 10.752 34.6701 13.312C34.6701 13.728 34.7421 14.008 34.8861 14.152C35.0461 14.296 35.3501 14.368 35.7981 14.368C36.4061 14.368 36.8621 14.296 37.1661 14.152C37.4861 13.992 37.7181 13.72 37.8621 13.336C38.0221 12.936 38.1501 12.312 38.2461 11.464L40.0701 11.272L40.2141 11.488C40.1821 11.728 40.1101 12.288 39.9981 13.168C39.8861 14.048 39.7901 14.96 39.7101 15.904L39.4941 16.144C39.1421 16.128 38.3661 16.096 37.1661 16.048C35.9821 16.016 34.8861 16 33.8781 16C33.1261 16 32.3981 16.024 31.6941 16.072C30.9901 16.136 30.5421 16.176 30.3501 16.192L30.5181 14.8ZM46.6993 16.216C46.4913 16.184 46.0593 16.136 45.4033 16.072C44.7473 16.024 44.1793 16 43.6993 16C43.2513 16 42.7473 16.024 42.1873 16.072C41.6433 16.136 41.2833 16.176 41.1073 16.192L41.2273 14.776C41.7713 14.696 42.1393 14.552 42.3313 14.344C42.5233 14.12 42.6193 13.744 42.6193 13.216L42.6433 6.328C42.6433 5.928 42.5953 5.664 42.4993 5.536C42.4193 5.392 42.2673 5.32 42.0433 5.32C41.8993 5.32 41.7633 5.328 41.6353 5.344C41.5233 5.36 41.4433 5.368 41.3953 5.368L41.2753 5.176L41.4433 3.928C41.6353 3.928 41.9953 3.936 42.5233 3.952C43.0513 3.968 43.5553 3.976 44.0353 3.976C44.6273 3.976 45.2433 3.968 45.8833 3.952C46.5233 3.92 46.9633 3.896 47.2033 3.88C49.2193 3.88 50.7873 4.368 51.9073 5.344C53.0273 6.32 53.5873 7.704 53.5873 9.496C53.5873 10.824 53.2993 12 52.7233 13.024C52.1473 14.032 51.3313 14.816 50.2753 15.376C49.2353 15.936 48.0433 16.216 46.6993 16.216ZM46.2193 5.704C46.0113 5.704 45.8673 5.736 45.7873 5.8C45.7233 5.864 45.6833 5.984 45.6673 6.16C45.5073 9.28 45.4273 11.624 45.4273 13.192C45.4273 13.688 45.5233 14.016 45.7153 14.176C45.9233 14.336 46.3153 14.416 46.8913 14.416C49.0993 14.416 50.2033 12.976 50.2033 10.096C50.2033 8.544 49.8833 7.424 49.2433 6.736C48.6033 6.048 47.5953 5.704 46.2193 5.704ZM59.5566 14.656C60.2446 14.544 60.7006 14.344 60.9246 14.056C61.1646 13.768 61.2846 13.272 61.2846 12.568L61.3086 3.424C61.3086 2.912 61.2526 2.568 61.1406 2.392C61.0446 2.216 60.8446 2.128 60.5406 2.128C60.3806 2.128 60.2286 2.136 60.0846 2.152C59.9406 2.168 59.8446 2.176 59.7966 2.176L59.6526 1.96L59.8446 0.519999C60.1326 0.535999 60.6846 0.551999 61.5006 0.568C62.3326 0.584 63.2286 0.592 64.1886 0.592C67.4686 0.592 69.7166 0.495999 70.9326 0.303999L71.1246 0.568C71.0766 0.823999 70.9886 1.392 70.8606 2.272C70.7486 3.136 70.6686 4.032 70.6206 4.96L68.4846 5.08C68.4846 5 68.4926 4.864 68.5086 4.672C68.5246 4.48 68.5326 4.288 68.5326 4.096C68.5326 3.632 68.4686 3.296 68.3406 3.088C68.2286 2.88 67.9966 2.744 67.6446 2.68C67.3086 2.6 66.7486 2.56 65.9646 2.56C65.5486 2.56 65.2606 2.576 65.1006 2.608C64.9406 2.64 64.8286 2.712 64.7646 2.824C64.7166 2.936 64.6846 3.12 64.6686 3.376L64.5006 7.552L66.7566 7.576C67.0606 7.576 67.5086 7.544 68.1006 7.48C68.6926 7.416 69.0846 7.376 69.2766 7.36L69.4446 7.576L69.1086 9.616C68.9166 9.6 68.5406 9.584 67.9806 9.568C67.4366 9.552 66.8606 9.544 66.2526 9.544C65.6766 9.544 65.0686 9.6 64.4286 9.712L64.3566 12.64C64.3566 13.248 64.4206 13.656 64.5486 13.864C64.6926 14.072 64.9726 14.176 65.3886 14.176C65.6446 14.176 65.9406 14.16 66.2766 14.128C66.6126 14.096 66.8366 14.072 66.9486 14.056L67.1646 14.296L66.9006 16.096C66.6286 16.08 66.1166 16.056 65.3646 16.024C64.6286 16.008 63.8926 16 63.1566 16C62.4206 16 61.6606 16.032 60.8766 16.096C60.1086 16.176 59.6126 16.232 59.3886 16.264L59.5566 14.656ZM72.2346 14.824C72.8106 14.712 73.1866 14.56 73.3626 14.368C73.5386 14.16 73.6266 13.792 73.6266 13.264L73.6506 6.28C73.6506 5.896 73.6026 5.64 73.5066 5.512C73.4106 5.384 73.2186 5.32 72.9306 5.32H72.2826L72.1866 5.128L72.3066 3.952L75.1626 3.976C75.5146 3.976 76.0346 3.96 76.7226 3.928C77.4106 3.896 77.8666 3.872 78.0906 3.856L77.9706 5.224C77.4746 5.288 77.1466 5.384 76.9866 5.512C76.8426 5.64 76.7546 5.88 76.7226 6.232C76.5626 8.584 76.4826 10.976 76.4826 13.408C76.4826 13.92 76.5306 14.264 76.6266 14.44C76.7226 14.6 76.9226 14.68 77.2266 14.68C77.4346 14.68 77.6026 14.672 77.7306 14.656C77.8746 14.64 77.9706 14.632 78.0186 14.632L78.1386 14.776L77.9706 16.048C77.7466 16.048 77.3226 16.04 76.6986 16.024C76.0906 16.008 75.5066 16 74.9466 16C74.4826 16 73.9386 16.016 73.3146 16.048C72.6906 16.096 72.2826 16.128 72.0906 16.144L72.2346 14.824ZM89.4741 6.112C89.4581 5.808 89.4021 5.6 89.3061 5.488C89.2101 5.376 89.0501 5.32 88.8261 5.32H88.1541L88.0821 5.152L88.2021 3.904C88.3941 3.92 88.7541 3.936 89.2821 3.952C89.8101 3.968 90.3461 3.976 90.8901 3.976C91.4181 3.976 91.9141 3.968 92.3781 3.952C92.8421 3.92 93.1541 3.896 93.3141 3.88L93.2181 5.248C92.7861 5.312 92.4741 5.432 92.2821 5.608C92.1061 5.784 92.0101 6.056 91.9941 6.424L91.7061 16.192L89.3301 16.432C88.1141 14.64 86.9701 13.008 85.8981 11.536C84.8421 10.048 84.1701 9.104 83.8821 8.704H83.6661V13.816C83.6661 14.152 83.7141 14.384 83.8101 14.512C83.9221 14.64 84.1061 14.704 84.3621 14.704C84.5061 14.704 84.6581 14.696 84.8181 14.68C84.9941 14.664 85.1141 14.656 85.1781 14.656L85.2981 14.776L85.0821 16.072C84.8901 16.072 84.5301 16.056 84.0021 16.024C83.4741 16.008 82.9541 16 82.4421 16C81.9781 16 81.4741 16.016 80.9301 16.048C80.4021 16.096 80.0581 16.128 79.8981 16.144L80.0661 14.776C80.4661 14.728 80.7541 14.616 80.9301 14.44C81.1061 14.264 81.2021 13.984 81.2181 13.6L81.4821 6.448C81.4821 6.048 81.3781 5.776 81.1701 5.632C80.9621 5.472 80.5381 5.352 79.8981 5.272L79.7301 5.08L79.8741 3.88C80.0181 3.896 80.3461 3.92 80.8581 3.952C81.3701 3.968 81.8421 3.976 82.2741 3.976C82.7381 3.976 83.1621 3.968 83.5461 3.952C83.9301 3.936 84.1861 3.92 84.3141 3.904C85.3061 5.456 86.3061 6.952 87.3141 8.392C88.3381 9.816 89.0021 10.728 89.3061 11.128H89.5221L89.4741 6.112ZM100.237 16L100.333 14.752C100.797 14.704 101.125 14.664 101.317 14.632C101.509 14.584 101.637 14.52 101.701 14.44C101.781 14.36 101.821 14.24 101.821 14.08C101.821 13.904 101.789 13.72 101.725 13.528L101.389 12.28C101.053 12.264 100.469 12.256 99.6367 12.256C99.2688 12.256 98.6608 12.296 97.8128 12.376L97.3808 13.624C97.3168 13.864 97.2848 14.04 97.2848 14.152C97.2848 14.36 97.3408 14.504 97.4528 14.584C97.5808 14.648 97.8128 14.68 98.1488 14.68H98.8928L99.0128 14.848L98.8688 16.096C98.6768 16.08 98.2688 16.056 97.6448 16.024C97.0368 16.008 96.4688 16 95.9408 16C95.3808 16 94.8688 16.008 94.4048 16.024C93.9568 16.04 93.6608 16.048 93.5168 16.048L93.6608 14.704C93.9488 14.656 94.1808 14.544 94.3568 14.368C94.5488 14.176 94.7248 13.896 94.8848 13.528L98.3408 4.072L101.869 3.76L102.109 3.904C102.301 4.624 102.709 6.096 103.333 8.32C103.957 10.544 104.469 12.248 104.869 13.432C104.997 13.864 105.165 14.176 105.373 14.368C105.597 14.56 105.917 14.672 106.333 14.704L106.429 14.848L106.285 16.048C106.109 16.048 105.773 16.04 105.277 16.024C104.797 16.008 104.301 16 103.789 16C103.069 16 102.365 16.016 101.677 16.048C100.989 16.096 100.549 16.128 100.357 16.144L100.237 16ZM99.6367 10.576C100.165 10.576 100.629 10.552 101.029 10.504L99.9488 6.616H99.6608L98.3408 10.576H99.6367ZM117.083 6.112C117.067 5.808 117.011 5.6 116.915 5.488C116.819 5.376 116.659 5.32 116.435 5.32H115.763L115.691 5.152L115.811 3.904C116.003 3.92 116.363 3.936 116.891 3.952C117.419 3.968 117.955 3.976 118.499 3.976C119.027 3.976 119.523 3.968 119.987 3.952C120.451 3.92 120.763 3.896 120.923 3.88L120.827 5.248C120.395 5.312 120.083 5.432 119.891 5.608C119.715 5.784 119.619 6.056 119.603 6.424L119.315 16.192L116.939 16.432C115.723 14.64 114.579 13.008 113.507 11.536C112.451 10.048 111.779 9.104 111.491 8.704H111.275V13.816C111.275 14.152 111.323 14.384 111.419 14.512C111.531 14.64 111.715 14.704 111.971 14.704C112.115 14.704 112.267 14.696 112.427 14.68C112.603 14.664 112.723 14.656 112.787 14.656L112.907 14.776L112.691 16.072C112.499 16.072 112.139 16.056 111.611 16.024C111.083 16.008 110.563 16 110.051 16C109.587 16 109.083 16.016 108.539 16.048C108.011 16.096 107.667 16.128 107.507 16.144L107.675 14.776C108.075 14.728 108.363 14.616 108.539 14.44C108.715 14.264 108.811 13.984 108.827 13.6L109.091 6.448C109.091 6.048 108.987 5.776 108.779 5.632C108.571 5.472 108.147 5.352 107.507 5.272L107.339 5.08L107.483 3.88C107.627 3.896 107.955 3.92 108.467 3.952C108.979 3.968 109.451 3.976 109.883 3.976C110.347 3.976 110.771 3.968 111.155 3.952C111.539 3.936 111.795 3.92 111.923 3.904C112.915 5.456 113.915 6.952 114.923 8.392C115.947 9.816 116.611 10.728 116.915 11.128H117.131L117.083 6.112ZM128.03 16.216C126.19 16.216 124.75 15.696 123.71 14.656C122.67 13.6 122.15 12.144 122.15 10.288C122.15 8.96 122.43 7.808 122.99 6.832C123.55 5.84 124.35 5.08 125.39 4.552C126.446 4.024 127.678 3.76 129.086 3.76C129.582 3.76 130.118 3.8 130.694 3.88C131.27 3.944 131.758 4.016 132.158 4.096C132.574 4.16 132.838 4.208 132.95 4.24L133.07 4.504C133.054 4.584 133.006 4.792 132.926 5.128C132.862 5.448 132.79 5.88 132.71 6.424C132.63 6.968 132.574 7.544 132.542 8.152L130.382 8.296C130.382 8.248 130.382 8.136 130.382 7.96C130.398 7.768 130.406 7.544 130.406 7.288C130.406 6.76 130.246 6.376 129.926 6.136C129.606 5.896 129.102 5.776 128.414 5.776C127.438 5.776 126.71 6.096 126.23 6.736C125.75 7.36 125.51 8.328 125.51 9.64C125.51 11.112 125.774 12.248 126.302 13.048C126.83 13.832 127.574 14.224 128.534 14.224C129.206 14.224 129.726 14.032 130.094 13.648C130.462 13.264 130.718 12.632 130.862 11.752L133.022 11.608C132.99 11.832 132.926 12.328 132.83 13.096C132.734 13.848 132.678 14.56 132.662 15.232L132.446 15.472C132.35 15.504 132.102 15.584 131.702 15.712C131.302 15.824 130.774 15.936 130.118 16.048C129.462 16.16 128.766 16.216 128.03 16.216ZM135.024 14.8C135.568 14.736 135.936 14.592 136.128 14.368C136.32 14.128 136.416 13.728 136.416 13.168L136.44 6.328C136.44 5.928 136.4 5.664 136.32 5.536C136.24 5.392 136.072 5.32 135.816 5.32L135.24 5.344L135.096 5.152L135.264 3.928C135.52 3.928 136.008 3.936 136.728 3.952C137.464 3.968 138.248 3.976 139.08 3.976C141.912 3.976 143.928 3.904 145.128 3.76L145.296 3.976C145.248 4.184 145.168 4.64 145.056 5.344C144.96 6.032 144.888 6.744 144.84 7.48L142.848 7.6C142.848 7.552 142.856 7.456 142.872 7.312C142.888 7.152 142.896 7 142.896 6.856C142.896 6.504 142.84 6.256 142.728 6.112C142.616 5.968 142.4 5.872 142.08 5.824C141.76 5.76 141.232 5.728 140.496 5.728C140.064 5.728 139.792 5.76 139.68 5.824C139.584 5.888 139.528 6.048 139.512 6.304L139.392 9.016H141.168C141.456 9.016 141.864 9 142.392 8.968C142.92 8.92 143.272 8.888 143.448 8.872L143.64 9.088L143.352 10.816C143.176 10.816 142.84 10.808 142.344 10.792C141.864 10.776 141.352 10.768 140.808 10.768C140.376 10.768 139.88 10.808 139.32 10.888C139.288 11.656 139.272 12.44 139.272 13.24C139.272 13.592 139.296 13.84 139.344 13.984C139.392 14.128 139.496 14.232 139.656 14.296C139.816 14.344 140.088 14.368 140.472 14.368C141.272 14.368 141.856 14.32 142.224 14.224C142.592 14.112 142.856 13.92 143.016 13.648C143.176 13.36 143.304 12.896 143.4 12.256L145.224 12.112L145.416 12.328C145.368 12.52 145.28 12.968 145.152 13.672C145.04 14.376 144.944 15.12 144.864 15.904L144.648 16.12C144.248 16.104 143.376 16.08 142.032 16.048C140.704 16.016 139.504 16 138.432 16C137.68 16 136.952 16.024 136.248 16.072C135.544 16.136 135.088 16.176 134.88 16.192L135.024 14.8Z" fill="#C09028"/>
</svg>
