<svg width="117" height="117" viewBox="0 0 117 117" fill="none" xmlns="http://www.w3.org/2000/svg">
<g clip-path="url(#clip0_3_58)">
<path fill-rule="evenodd" clip-rule="evenodd" d="M109.201 87.3171V29.7208L59.3115 0.930206L9.43636 29.7208V87.3171L59.3115 116.123L109.201 87.3171Z" fill="white" stroke="#AA7D50" stroke-width="5" stroke-miterlimit="10"/>
<path fill-rule="evenodd" clip-rule="evenodd" d="M40.4691 78.2894C41.6719 78.9575 42.8597 79.6258 44.0177 80.3086C45.176 80.9916 46.3341 81.6747 47.5219 82.3577C47.4922 83.6496 47.4922 84.9561 47.5071 86.233C47.5219 87.5249 47.5219 88.8316 47.5219 90.153V90.3757C47.4922 90.4352 47.433 90.4946 47.3438 90.554C47.2547 90.5985 47.1508 90.643 47.0616 90.6727C45.9927 91.3113 44.9088 91.9349 43.8099 92.5585C42.7111 93.1821 41.6124 93.8057 40.5286 94.4441C39.3405 93.776 38.1675 93.1079 37.0094 92.4249C35.8514 91.7418 34.6633 91.0588 33.4905 90.3757C33.52 88.9949 33.52 87.6882 33.5053 86.4558C33.4905 85.2383 33.4905 84.0208 33.4905 82.8033V82.343C33.52 82.3133 33.5795 82.2686 33.6983 82.1944C33.8022 82.1202 33.8914 82.0755 33.9508 82.0458C34.4703 81.7488 34.9753 81.4669 35.4653 81.1847C35.9553 80.9027 36.46 80.6205 36.9797 80.3236C37.5886 79.9522 38.1825 79.6108 38.7616 79.2694C39.3258 78.9724 39.905 78.6458 40.4691 78.2894ZM35.5544 83.5752V89.2474C36.4006 89.7374 37.2322 90.2124 38.0489 90.6727C38.8655 91.1479 39.6822 91.623 40.4839 92.0982C41.2411 91.6676 41.9688 91.2518 42.6814 90.836C43.3941 90.4352 44.1069 90.0046 44.8344 89.574C44.8641 89.5591 44.9088 89.5443 44.968 89.4996C45.0274 89.4699 45.1016 89.4255 45.176 89.3957C45.2502 89.3513 45.3096 89.3216 45.3691 89.2769C45.4283 89.2324 45.458 89.2027 45.473 89.173C45.5027 89.1138 45.5027 89.0096 45.4877 88.8613C45.473 88.7277 45.473 88.5941 45.473 88.4752V83.5455C44.6711 83.0555 43.8544 82.5805 43.008 82.0905C42.1619 81.6005 41.3452 81.1402 40.5433 80.6799C39.6969 81.1402 38.8655 81.6152 38.0489 82.0905C37.2172 82.5952 36.3858 83.0852 35.5544 83.5752ZM42.6519 85.1788C42.6519 85.5797 42.6519 85.9807 42.6369 86.3816C42.6222 86.7824 42.6369 87.1833 42.6519 87.5843C42.3102 87.8071 41.9539 88.0297 41.5975 88.2377C41.2411 88.4455 40.8849 88.6385 40.5433 88.8463C40.1722 88.6385 39.8158 88.4455 39.4594 88.2377C39.103 88.0446 38.7616 87.8366 38.42 87.6288C38.3903 87.1685 38.3755 86.7527 38.3755 86.3816C38.3755 86.0105 38.3903 85.5946 38.42 85.1641C38.7319 84.9561 39.0883 84.7483 39.4594 84.5405C39.8305 84.3177 40.2019 84.1099 40.5433 83.9169C40.8849 84.1247 41.2411 84.3177 41.5975 84.5255C41.9539 84.7335 42.3102 84.9413 42.6519 85.1788ZM38.42 87.5843C38.7319 87.7624 39.0436 87.9407 39.3555 88.1338C39.6672 88.3119 39.9642 88.4752 40.2464 88.6238C40.3058 88.6533 40.3652 88.683 40.3949 88.7277C40.4244 88.7721 40.4541 88.8018 40.4839 88.8018V86.4558C40.1722 86.233 39.8305 86.0105 39.4742 85.8321C39.118 85.6391 38.7616 85.4313 38.42 85.2085V87.5843ZM40.4691 83.9761C40.1572 84.1841 39.8158 84.3771 39.4891 84.5849C39.1475 84.778 38.8061 84.9858 38.4647 85.1938C38.7764 85.4016 39.118 85.5946 39.4742 85.8024C39.8305 85.9955 40.1869 86.2035 40.5286 86.4113C40.8402 86.2035 41.1819 86.0105 41.538 85.8024C41.8944 85.6094 42.2211 85.4016 42.5477 85.1938C42.2063 84.9858 41.8647 84.7927 41.538 84.5849C41.1966 84.3771 40.8402 84.1691 40.4691 83.9761ZM40.5286 86.441V88.7871C40.87 88.5791 41.2263 88.386 41.5827 88.1782C41.9391 87.9852 42.2805 87.7774 42.5924 87.5694C42.5924 87.1685 42.5924 86.7677 42.6072 86.3668C42.6222 85.9658 42.6072 85.5649 42.5924 85.1641C42.2508 85.3869 41.9094 85.6094 41.5678 85.7877C41.2263 85.9955 40.87 86.2035 40.5286 86.441Z" fill="black"/>
<path fill-rule="evenodd" clip-rule="evenodd" d="M51.2341 75.1861V80.858C52.0952 80.3977 52.9416 79.9375 53.7435 79.4475C54.5452 78.9725 55.3618 78.4972 56.1637 78.0369C57.0546 78.5269 57.9454 79.0019 58.8215 79.4919C59.7123 79.9819 60.5884 80.4869 61.4793 81.0066L63.2017 82.0311V90.1382C62.9048 90.3163 62.6226 90.4946 62.3257 90.6579C62.0434 90.8213 61.7318 90.9993 61.4198 91.1777C60.5587 91.6677 59.6826 92.1576 58.8065 92.6624C57.9307 93.1671 57.0693 93.6868 56.1932 94.2066C55.0054 93.5235 53.8324 92.8405 52.6743 92.1724C51.516 91.5043 50.3282 90.8213 49.1552 90.1382V81.8233C49.1552 80.5016 49.1552 79.1653 49.1702 77.8439C49.1849 76.5075 49.1702 75.2455 49.1552 74.0278V73.9686C49.9124 74.3842 50.5955 74.7853 51.2341 75.1861ZM56.2229 80.3977C55.3766 80.858 54.5452 81.3333 53.7285 81.8083C52.9118 82.2983 52.0804 82.7735 51.2341 83.2635V88.9355C52.0804 89.4255 52.9118 89.9007 53.7285 90.361C54.5452 90.836 55.3618 91.3113 56.1637 91.7863C57.0099 91.326 57.8415 90.851 58.6582 90.3757C59.4748 89.9007 60.3062 89.4107 61.1526 88.9207V83.2486C60.3062 82.7586 59.4896 82.2835 58.6879 81.8233C57.886 81.363 57.0546 80.8877 56.2229 80.3977Z" fill="black"/>
<path fill-rule="evenodd" clip-rule="evenodd" d="M72.0956 78.2894C73.2984 78.9575 74.4864 79.6258 75.6445 80.3086C76.8025 80.9916 77.9608 81.6747 79.1486 82.3577C79.1189 83.6496 79.1189 84.9561 79.1339 86.233C79.1486 87.5249 79.1486 88.8316 79.1486 90.153V90.3757C79.1189 90.4352 79.0595 90.4946 78.9705 90.554C78.8814 90.5985 78.7775 90.643 78.6883 90.6727C77.6192 91.3113 76.5353 91.9349 75.4367 92.5585C74.3378 93.1821 73.2389 93.8057 72.1551 94.4441C70.9673 93.776 69.7942 93.1079 68.6362 92.4249C67.4779 91.7418 66.2901 91.0588 65.117 90.3757C65.1468 88.9949 65.1468 87.6882 65.132 86.4558C65.117 85.2383 65.117 84.0208 65.117 82.8033V82.343C65.1468 82.3133 65.2062 82.2686 65.3251 82.1944C65.429 82.1202 65.5179 82.0755 65.5773 82.0458C66.097 81.7488 66.602 81.4669 67.092 81.1847C67.582 80.9027 68.0867 80.6205 68.6064 80.3236C69.2151 79.9522 69.8092 79.6108 70.3881 79.2694C70.9525 78.9724 71.5167 78.6458 72.0956 78.2894ZM67.1662 83.5752V89.2474C68.0125 89.7374 68.844 90.2124 69.6606 90.6727C70.4773 91.1479 71.2939 91.623 72.0956 92.0982C72.8531 91.6676 73.5806 91.2518 74.2933 90.836C75.0059 90.4352 75.7186 90.0046 76.4461 89.574C76.4759 89.5591 76.5206 89.5443 76.58 89.4996C76.6392 89.4699 76.7136 89.4255 76.7878 89.3957C76.862 89.3513 76.9214 89.3216 76.9808 89.2769C77.0403 89.2324 77.0698 89.2027 77.0847 89.173C77.1144 89.1138 77.1144 89.0096 77.0995 88.8613C77.0847 88.7277 77.0847 88.5941 77.0847 88.4752V83.5455C76.2828 83.0555 75.4662 82.5805 74.62 82.0905C73.7736 81.6005 72.957 81.1402 72.1551 80.6799C71.3087 81.1402 70.4773 81.6152 69.6606 82.0905C68.8292 82.5952 67.9976 83.0852 67.1662 83.5752ZM74.2636 85.1788C74.2636 85.5797 74.2636 85.9807 74.2486 86.3816C74.2339 86.7824 74.2486 87.1833 74.2636 87.5843C73.922 87.8071 73.5656 88.0297 73.2092 88.2377C72.8531 88.4455 72.4967 88.6385 72.1551 88.8463C71.7839 88.6385 71.4275 88.4455 71.0712 88.2377C70.7148 88.0446 70.3734 87.8366 70.0317 87.6288C70.002 87.1685 69.9873 86.7527 69.9873 86.3816C69.9873 86.0105 70.002 85.5946 70.0317 85.1641C70.3437 84.9561 70.7 84.7483 71.0712 84.5405C71.4423 84.3177 71.8136 84.1099 72.1551 83.9169C72.4967 84.1247 72.8531 84.3177 73.2092 84.5255C73.5806 84.7335 73.922 84.9413 74.2636 85.1788ZM70.0317 87.5843C70.3437 87.7624 70.6553 87.9407 70.9673 88.1338C71.279 88.3119 71.5761 88.4752 71.8581 88.6238C71.9175 88.6533 71.977 88.683 72.0067 88.7277C72.0364 88.7721 72.0661 88.8018 72.0956 88.8018V86.4558C71.7839 86.233 71.4423 86.0105 71.0861 85.8321C70.7298 85.6391 70.3734 85.4313 70.0317 85.2085V87.5843ZM72.0956 83.9761C71.7839 84.1841 71.4425 84.3771 71.1159 84.5849C70.7742 84.778 70.4328 84.9858 70.0912 85.1938C70.4031 85.4016 70.7445 85.5946 71.1009 85.8024C71.4573 85.9955 71.8136 86.2035 72.1551 86.4113C72.467 86.2035 72.8084 86.0105 73.1648 85.8024C73.5211 85.6094 73.8478 85.4016 74.1745 85.1938C73.8331 84.9858 73.4914 84.7927 73.1648 84.5849C72.8084 84.3771 72.467 84.1691 72.0956 83.9761ZM72.1551 86.441V88.7871C72.4967 88.5791 72.8531 88.386 73.2095 88.1782C73.5656 87.9852 73.9072 87.7774 74.2189 87.5694C74.2189 87.1685 74.2189 86.7677 74.2339 86.3668C74.2487 85.9658 74.2339 85.5649 74.2189 85.1641C73.8775 85.3869 73.5361 85.6094 73.1945 85.7877C72.8381 85.9955 72.4967 86.2035 72.1551 86.441Z" fill="black"/>
<path fill-rule="evenodd" clip-rule="evenodd" d="M80.782 66.1434C81.1234 66.3514 81.465 66.5445 81.8064 66.7226C82.148 66.9009 82.4895 67.1086 82.8311 67.3462V89.188L80.7672 90.3907V67.5837V66.1434H80.782Z" fill="black"/>
<path fill-rule="evenodd" clip-rule="evenodd" d="M80.7522 45.7124C80.5742 52.8693 77.9459 59.6698 71.2048 64.3023C58.9848 72.7211 41.9539 66.0248 38.613 51.5477C36.9353 44.2721 37.6033 37.2786 41.8797 30.9978C46.6757 23.9598 53.6096 21.1089 61.9396 22.0592C70.1359 22.9946 75.7336 27.6719 78.9408 35.2297C80.2475 38.3327 80.7225 41.5846 80.7522 45.7124ZM78.4359 44.4949C78.3172 43.396 78.2428 41.8519 77.9906 40.3224C77.7975 39.1494 77.4411 38.0061 77.055 36.8777C72.3184 23.2471 54.961 19.5647 45.4433 30.3891C39.1922 37.5013 38.5983 45.9202 42.2211 54.4432C46.7796 65.1634 59.9796 68.9795 69.6162 62.5056C75.8078 58.3779 78.2131 52.1862 78.4359 44.4949Z" fill="#AA7D50"/>
<path fill-rule="evenodd" clip-rule="evenodd" d="M44.7455 64.1242C37.6033 59.8479 33.5944 53.686 33.4756 45.2521C33.3567 36.5361 37.3508 30.1367 44.7008 25.6673C38.8952 30.775 36.0444 37.2044 36.0444 44.9105C36.0592 52.6316 38.925 59.0462 44.7455 64.1242Z" fill="#AA7D50"/>
<path fill-rule="evenodd" clip-rule="evenodd" d="M73.6992 64.0945C85.6372 54.5915 85.3106 34.9622 73.7439 25.7564C79.0298 27.9689 84.8355 35.4819 85.1175 44.0346C85.4739 54.3393 78.8517 61.8673 73.6992 64.0945Z" fill="#AA7D50"/>
<path fill-rule="evenodd" clip-rule="evenodd" d="M37.2322 86.5894C37.2322 84.8346 38.6547 83.4119 40.4097 83.4119C42.1647 83.4119 43.5872 84.8346 43.5872 86.5894C43.5872 88.3444 42.1647 89.7669 40.4097 89.7669C38.6547 89.7669 37.2322 88.3444 37.2322 86.5894Z" fill="white"/>
<path fill-rule="evenodd" clip-rule="evenodd" d="M69.2003 86.5894C69.2003 84.8346 70.6231 83.4119 72.3778 83.4119C74.1328 83.4119 75.5553 84.8346 75.5553 86.5894C75.5553 88.3444 74.1328 89.7669 72.3778 89.7669C70.6231 89.7669 69.2003 88.3444 69.2003 86.5894Z" fill="white"/>
<path fill-rule="evenodd" clip-rule="evenodd" d="M64.5529 47.8357V42.0449L59.5343 39.1346L54.5007 42.0449V47.8357L59.5343 50.746L64.5529 47.8357Z" fill="#AA7D50"/>
</g>
<defs>
<clipPath id="clip0_3_58">
<rect width="117" height="117" fill="white"/>
</clipPath>
</defs>
</svg>
